<?xml version="1.0" encoding="UTF-8" standalone="no"?>
<!DOCTYPE svg PUBLIC "-//W3C//DTD SVG 1.1//EN"
 "http://www.w3.org/Graphics/SVG/1.1/DTD/svg11.dtd">
<!-- Generated by graphviz version 2.43.0 (0)
 -->
<!-- Title: finite_state_machine Pages: 1 -->
<svg width="412pt" height="155pt"
 viewBox="0.00 0.00 412.00 155.00" xmlns="http://www.w3.org/2000/svg" xmlns:xlink="http://www.w3.org/1999/xlink">
<g id="graph0" class="graph" transform="scale(1 1) rotate(0) translate(4 151)">
<title>finite_state_machine</title>
<polygon fill="white" stroke="transparent" points="-4,4 -4,-151 408,-151 408,4 -4,4"/>
<!-- 0 -->
<g id="node1" class="node">
<title>0</title>
<ellipse fill="none" stroke="black" cx="22" cy="-72" rx="18" ry="18"/>
<ellipse fill="none" stroke="black" cx="22" cy="-72" rx="22" ry="22"/>
<text text-anchor="middle" x="22" y="-68.3" font-family="Helvetica,Arial,sans-serif" font-size="14.00">0</text>
</g>
<!-- 1 -->
<g id="node4" class="node">
<title>1</title>
<ellipse fill="none" stroke="black" cx="202" cy="-129" rx="18" ry="18"/>
<text text-anchor="middle" x="202" y="-125.3" font-family="Helvetica,Arial,sans-serif" font-size="14.00">1</text>
</g>
<!-- 0&#45;&gt;1 -->
<g id="edge8" class="edge">
<title>0&#45;&gt;1</title>
<path fill="none" stroke="black" d="M41.83,-81.76C48.16,-84.88 55.32,-88.24 62,-91 100.2,-106.75 109.88,-111.09 150,-121 157.66,-122.89 166.08,-124.43 173.83,-125.63"/>
<polygon fill="black" stroke="black" points="173.46,-129.11 183.85,-127.06 174.45,-122.18 173.46,-129.11"/>
<text text-anchor="middle" x="114" y="-119.8" font-family="Helvetica,Arial,sans-serif" font-size="14.00">7</text>
</g>
<!-- 3 -->
<g id="node5" class="node">
<title>3</title>
<ellipse fill="none" stroke="black" cx="114" cy="-72" rx="18" ry="18"/>
<text text-anchor="middle" x="114" y="-68.3" font-family="Helvetica,Arial,sans-serif" font-size="14.00">3</text>
</g>
<!-- 0&#45;&gt;3 -->
<g id="edge9" class="edge">
<title>0&#45;&gt;3</title>
<path fill="none" stroke="black" d="M44.33,-72C56.72,-72 72.45,-72 85.73,-72"/>
<polygon fill="black" stroke="black" points="85.74,-75.5 95.74,-72 85.74,-68.5 85.74,-75.5"/>
<text text-anchor="middle" x="70" y="-75.8" font-family="Helvetica,Arial,sans-serif" font-size="14.00">10</text>
</g>
<!-- 2 -->
<g id="node6" class="node">
<title>2</title>
<ellipse fill="none" stroke="black" cx="202" cy="-18" rx="18" ry="18"/>
<text text-anchor="middle" x="202" y="-14.3" font-family="Helvetica,Arial,sans-serif" font-size="14.00">2</text>
</g>
<!-- 0&#45;&gt;2 -->
<g id="edge10" class="edge">
<title>0&#45;&gt;2</title>
<path fill="none" stroke="black" d="M40.33,-59.3C54.54,-49.57 75.58,-36.72 96,-30 121.49,-21.61 152.14,-18.89 173.72,-18.1"/>
<polygon fill="black" stroke="black" points="173.91,-21.6 183.82,-17.85 173.73,-14.6 173.91,-21.6"/>
<text text-anchor="middle" x="114" y="-33.8" font-family="Helvetica,Arial,sans-serif" font-size="14.00">8</text>
</g>
<!-- 5 -->
<g id="node2" class="node">
<title>5</title>
<ellipse fill="none" stroke="black" cx="382" cy="-108" rx="18" ry="18"/>
<ellipse fill="none" stroke="black" cx="382" cy="-108" rx="22" ry="22"/>
<text text-anchor="middle" x="382" y="-104.3" font-family="Helvetica,Arial,sans-serif" font-size="14.00">5</text>
</g>
<!-- 4 -->
<g id="node3" class="node">
<title>4</title>
<ellipse fill="none" stroke="black" cx="290" cy="-77" rx="18" ry="18"/>
<text text-anchor="middle" x="290" y="-73.3" font-family="Helvetica,Arial,sans-serif" font-size="14.00">4</text>
</g>
<!-- 4&#45;&gt;5 -->
<g id="edge1" class="edge">
<title>4&#45;&gt;5</title>
<path fill="none" stroke="black" d="M307.51,-82.69C319.71,-86.89 336.67,-92.73 351.22,-97.74"/>
<polygon fill="black" stroke="black" points="350.22,-101.1 360.82,-101.05 352.5,-94.48 350.22,-101.1"/>
<text text-anchor="middle" x="334" y="-97.8" font-family="Helvetica,Arial,sans-serif" font-size="14.00">14</text>
</g>
<!-- 1&#45;&gt;5 -->
<g id="edge2" class="edge">
<title>1&#45;&gt;5</title>
<path fill="none" stroke="black" d="M220.13,-127.1C246.37,-124.17 298.11,-118.34 342,-113 344.55,-112.69 347.19,-112.36 349.85,-112.03"/>
<polygon fill="black" stroke="black" points="350.48,-115.48 359.96,-110.75 349.6,-108.53 350.48,-115.48"/>
<text text-anchor="middle" x="290" y="-124.8" font-family="Helvetica,Arial,sans-serif" font-size="14.00">21</text>
</g>
<!-- 1&#45;&gt;4 -->
<g id="edge3" class="edge">
<title>1&#45;&gt;4</title>
<path fill="none" stroke="black" d="M217.51,-119.16C223.76,-115.01 231.18,-110.18 238,-106 246.68,-100.69 256.35,-95.11 264.91,-90.28"/>
<polygon fill="black" stroke="black" points="266.66,-93.31 273.68,-85.38 263.24,-87.2 266.66,-93.31"/>
<text text-anchor="middle" x="246" y="-109.8" font-family="Helvetica,Arial,sans-serif" font-size="14.00">1</text>
</g>
<!-- 3&#45;&gt;4 -->
<g id="edge6" class="edge">
<title>3&#45;&gt;4</title>
<path fill="none" stroke="black" d="M132,-72.49C162.15,-73.35 225.21,-75.17 261.57,-76.21"/>
<polygon fill="black" stroke="black" points="261.83,-79.72 271.93,-76.51 262.04,-72.72 261.83,-79.72"/>
<text text-anchor="middle" x="202" y="-77.8" font-family="Helvetica,Arial,sans-serif" font-size="14.00">5</text>
</g>
<!-- 3&#45;&gt;1 -->
<g id="edge4" class="edge">
<title>3&#45;&gt;1</title>
<path fill="none" stroke="black" d="M129.59,-81.67C142.89,-90.48 162.75,-103.65 178.16,-113.86"/>
<polygon fill="black" stroke="black" points="176.36,-116.87 186.63,-119.47 180.22,-111.03 176.36,-116.87"/>
<text text-anchor="middle" x="158" y="-108.8" font-family="Helvetica,Arial,sans-serif" font-size="14.00">11</text>
</g>
<!-- 3&#45;&gt;2 -->
<g id="edge5" class="edge">
<title>3&#45;&gt;2</title>
<path fill="none" stroke="black" d="M127.73,-60.21C134.13,-54.61 142.18,-48.05 150,-43 157.98,-37.84 167.17,-33.03 175.53,-29.03"/>
<polygon fill="black" stroke="black" points="177.24,-32.1 184.85,-24.73 174.31,-25.74 177.24,-32.1"/>
<text text-anchor="middle" x="158" y="-46.8" font-family="Helvetica,Arial,sans-serif" font-size="14.00">2</text>
</g>
<!-- 2&#45;&gt;4 -->
<g id="edge7" class="edge">
<title>2&#45;&gt;4</title>
<path fill="none" stroke="black" d="M218.88,-24.24C229.33,-28.71 243.03,-35.28 254,-43 259.55,-46.9 265.05,-51.69 269.99,-56.43"/>
<polygon fill="black" stroke="black" points="267.68,-59.07 277.22,-63.7 272.65,-54.14 267.68,-59.07"/>
<text text-anchor="middle" x="246" y="-46.8" font-family="Helvetica,Arial,sans-serif" font-size="14.00">12</text>
</g>
</g>
</svg>
