<?xml version="1.0" encoding="UTF-8" standalone="no"?>
<!DOCTYPE svg PUBLIC "-//W3C//DTD SVG 1.1//EN"
 "http://www.w3.org/Graphics/SVG/1.1/DTD/svg11.dtd">
<!-- Generated by graphviz version 2.43.0 (0)
 -->
<!-- Title: finite_state_machine Pages: 1 -->
<svg width="492pt" height="479pt"
 viewBox="0.00 0.00 492.00 479.00" xmlns="http://www.w3.org/2000/svg" xmlns:xlink="http://www.w3.org/1999/xlink">
<g id="graph0" class="graph" transform="scale(1 1) rotate(0) translate(4 475)">
<title>finite_state_machine</title>
<polygon fill="white" stroke="transparent" points="-4,4 -4,-475 488,-475 488,4 -4,4"/>
<!-- 0 -->
<g id="node1" class="node">
<title>0</title>
<ellipse fill="none" stroke="black" cx="22" cy="-153" rx="18" ry="18"/>
<ellipse fill="none" stroke="black" cx="22" cy="-153" rx="22" ry="22"/>
<text text-anchor="middle" x="22" y="-149.3" font-family="Helvetica,Arial,sans-serif" font-size="14.00">0</text>
</g>
<!-- 2 -->
<g id="node3" class="node">
<title>2</title>
<ellipse fill="none" stroke="black" cx="106" cy="-230" rx="18" ry="18"/>
<text text-anchor="middle" x="106" y="-226.3" font-family="Helvetica,Arial,sans-serif" font-size="14.00">2</text>
</g>
<!-- 0&#45;&gt;2 -->
<g id="edge1" class="edge">
<title>0&#45;&gt;2</title>
<path fill="none" stroke="black" d="M36.27,-170.03C43.47,-178.8 52.76,-189.42 62,-198 68.23,-203.79 75.5,-209.52 82.26,-214.5"/>
<polygon fill="black" stroke="black" points="80.28,-217.39 90.45,-220.36 84.35,-211.69 80.28,-217.39"/>
<text text-anchor="middle" x="66" y="-207.8" font-family="Helvetica,Arial,sans-serif" font-size="14.00">8</text>
</g>
<!-- 3 -->
<g id="node4" class="node">
<title>3</title>
<ellipse fill="none" stroke="black" cx="466" cy="-217" rx="18" ry="18"/>
<text text-anchor="middle" x="466" y="-213.3" font-family="Helvetica,Arial,sans-serif" font-size="14.00">3</text>
</g>
<!-- 0&#45;&gt;3 -->
<g id="edge2" class="edge">
<title>0&#45;&gt;3</title>
<path fill="none" stroke="black" d="M24.22,-175.28C28.65,-245.25 46.83,-456 105,-456 105,-456 105,-456 379,-456 410.13,-456 415.12,-435.34 430,-408 458.58,-355.49 464.36,-284.08 465.21,-245.15"/>
<polygon fill="black" stroke="black" points="468.71,-245.12 465.34,-235.07 461.71,-245.03 468.71,-245.12"/>
<text text-anchor="middle" x="238" y="-459.8" font-family="Helvetica,Arial,sans-serif" font-size="14.00">10</text>
</g>
<!-- 1 -->
<g id="node5" class="node">
<title>1</title>
<ellipse fill="none" stroke="black" cx="378" cy="-217" rx="18" ry="18"/>
<text text-anchor="middle" x="378" y="-213.3" font-family="Helvetica,Arial,sans-serif" font-size="14.00">1</text>
</g>
<!-- 0&#45;&gt;1 -->
<g id="edge3" class="edge">
<title>0&#45;&gt;1</title>
<path fill="none" stroke="black" d="M43.78,-149.58C96.76,-141.87 239.9,-127.56 342,-178 349.29,-181.6 355.76,-187.44 361.08,-193.52"/>
<polygon fill="black" stroke="black" points="358.66,-196.1 367.62,-201.76 364.15,-191.75 358.66,-196.1"/>
<text text-anchor="middle" x="194" y="-147.8" font-family="Helvetica,Arial,sans-serif" font-size="14.00">7</text>
</g>
<!-- 5 -->
<g id="node2" class="node">
<title>5</title>
<ellipse fill="none" stroke="black" cx="286" cy="-304" rx="18" ry="18"/>
<ellipse fill="none" stroke="black" cx="286" cy="-304" rx="22" ry="22"/>
<text text-anchor="middle" x="286" y="-300.3" font-family="Helvetica,Arial,sans-serif" font-size="14.00">5</text>
</g>
<!-- 5&#45;&gt;1 -->
<g id="edge5" class="edge">
<title>5&#45;&gt;1</title>
<path fill="none" stroke="black" d="M307.88,-306.5C319,-306.73 332.34,-305.13 342,-298 359.08,-285.39 367.92,-262.7 372.44,-244.54"/>
<polygon fill="black" stroke="black" points="375.87,-245.26 374.59,-234.74 369.03,-243.76 375.87,-245.26"/>
<text text-anchor="middle" x="334" y="-307.8" font-family="Helvetica,Arial,sans-serif" font-size="14.00">0</text>
</g>
<!-- 4 -->
<g id="node6" class="node">
<title>4</title>
<ellipse fill="none" stroke="black" cx="194" cy="-223" rx="18" ry="18"/>
<text text-anchor="middle" x="194" y="-219.3" font-family="Helvetica,Arial,sans-serif" font-size="14.00">4</text>
</g>
<!-- 5&#45;&gt;4 -->
<g id="edge4" class="edge">
<title>5&#45;&gt;4</title>
<path fill="none" stroke="black" d="M267.65,-291.11C256.56,-282.63 242.06,-271.1 230,-260 224.49,-254.93 218.8,-249.17 213.65,-243.72"/>
<polygon fill="black" stroke="black" points="215.94,-241.05 206.57,-236.1 210.8,-245.81 215.94,-241.05"/>
<text text-anchor="middle" x="238" y="-275.8" font-family="Helvetica,Arial,sans-serif" font-size="14.00">0</text>
</g>
<!-- 2&#45;&gt;0 -->
<g id="edge20" class="edge">
<title>2&#45;&gt;0</title>
<path fill="none" stroke="black" d="M96.81,-214.3C90.55,-203.41 81.13,-189.11 70,-179 64.62,-174.11 58.16,-169.79 51.78,-166.15"/>
<polygon fill="black" stroke="black" points="53.09,-162.88 42.61,-161.3 49.81,-169.07 53.09,-162.88"/>
<text text-anchor="middle" x="66" y="-182.8" font-family="Helvetica,Arial,sans-serif" font-size="14.00">0</text>
</g>
<!-- 2&#45;&gt;3 -->
<g id="edge19" class="edge">
<title>2&#45;&gt;3</title>
<path fill="none" stroke="black" d="M107.28,-248.22C109.07,-294.5 120.69,-413 193,-413 193,-413 193,-413 379,-413 451.31,-413 463.38,-299.75 465.01,-245.42"/>
<polygon fill="black" stroke="black" points="468.52,-245.16 465.22,-235.09 461.52,-245.02 468.52,-245.16"/>
<text text-anchor="middle" x="286" y="-416.8" font-family="Helvetica,Arial,sans-serif" font-size="14.00">0</text>
</g>
<!-- 2&#45;&gt;4 -->
<g id="edge18" class="edge">
<title>2&#45;&gt;4</title>
<path fill="none" stroke="black" d="M123.99,-228.62C135.89,-227.65 152.04,-226.33 165.73,-225.22"/>
<polygon fill="black" stroke="black" points="166.36,-228.68 176.04,-224.38 165.79,-221.7 166.36,-228.68"/>
<text text-anchor="middle" x="150" y="-230.8" font-family="Helvetica,Arial,sans-serif" font-size="14.00">12</text>
</g>
<!-- 3&#45;&gt;0 -->
<g id="edge17" class="edge">
<title>3&#45;&gt;0</title>
<path fill="none" stroke="black" d="M461.93,-199.24C452.45,-147.42 421.75,0 379,0 105,0 105,0 105,0 50.59,0 32.14,-76.08 25.99,-120.95"/>
<polygon fill="black" stroke="black" points="22.49,-120.72 24.74,-131.08 29.44,-121.58 22.49,-120.72"/>
<text text-anchor="middle" x="238" y="-3.8" font-family="Helvetica,Arial,sans-serif" font-size="14.00">0</text>
</g>
<!-- 3&#45;&gt;2 -->
<g id="edge15" class="edge">
<title>3&#45;&gt;2</title>
<path fill="none" stroke="black" d="M462.86,-234.78C457.1,-273.5 437.54,-362 379,-362 193,-362 193,-362 193,-362 143.75,-362 121.23,-296.69 112.21,-257.95"/>
<polygon fill="black" stroke="black" points="115.55,-256.83 110.01,-247.8 108.71,-258.32 115.55,-256.83"/>
<text text-anchor="middle" x="286" y="-365.8" font-family="Helvetica,Arial,sans-serif" font-size="14.00">2</text>
</g>
<!-- 3&#45;&gt;1 -->
<g id="edge16" class="edge">
<title>3&#45;&gt;1</title>
<path fill="none" stroke="black" d="M450.69,-207.13C444.6,-203.51 437.24,-199.84 430,-198 423.11,-196.25 420.89,-196.25 414,-198 410.04,-199.01 406.05,-200.56 402.24,-202.35"/>
<polygon fill="black" stroke="black" points="400.48,-199.33 393.31,-207.13 403.78,-205.5 400.48,-199.33"/>
<text text-anchor="middle" x="422" y="-201.8" font-family="Helvetica,Arial,sans-serif" font-size="14.00">11</text>
</g>
<!-- 3&#45;&gt;4 -->
<g id="edge14" class="edge">
<title>3&#45;&gt;4</title>
<path fill="none" stroke="black" d="M460.29,-199.74C445.7,-149.79 397.88,-10.89 326,-47 263.11,-78.59 222.76,-156.26 205.18,-197.04"/>
<polygon fill="black" stroke="black" points="201.92,-195.75 201.29,-206.33 208.38,-198.45 201.92,-195.75"/>
<text text-anchor="middle" x="334" y="-50.8" font-family="Helvetica,Arial,sans-serif" font-size="14.00">5</text>
</g>
<!-- 1&#45;&gt;0 -->
<g id="edge13" class="edge">
<title>1&#45;&gt;0</title>
<path fill="none" stroke="black" d="M374.2,-199.14C367.12,-161.2 344.79,-76 287,-76 105,-76 105,-76 105,-76 75.48,-76 52.23,-102.85 38.14,-124.84"/>
<polygon fill="black" stroke="black" points="35.04,-123.2 32.84,-133.57 41.02,-126.83 35.04,-123.2"/>
<text text-anchor="middle" x="194" y="-79.8" font-family="Helvetica,Arial,sans-serif" font-size="14.00">0</text>
</g>
<!-- 1&#45;&gt;5 -->
<g id="edge11" class="edge">
<title>1&#45;&gt;5</title>
<path fill="none" stroke="black" d="M366.67,-231.2C360.05,-239.9 351.02,-251.05 342,-260 332.93,-268.99 322.11,-277.97 312.48,-285.44"/>
<polygon fill="black" stroke="black" points="310.23,-282.75 304.39,-291.59 314.47,-288.33 310.23,-282.75"/>
<text text-anchor="middle" x="334" y="-277.8" font-family="Helvetica,Arial,sans-serif" font-size="14.00">21</text>
</g>
<!-- 1&#45;&gt;3 -->
<g id="edge12" class="edge">
<title>1&#45;&gt;3</title>
<path fill="none" stroke="black" d="M396.4,-217C408.25,-217 424.18,-217 437.71,-217"/>
<polygon fill="black" stroke="black" points="437.92,-220.5 447.92,-217 437.92,-213.5 437.92,-220.5"/>
<text text-anchor="middle" x="422" y="-220.8" font-family="Helvetica,Arial,sans-serif" font-size="14.00">0</text>
</g>
<!-- 1&#45;&gt;4 -->
<g id="edge10" class="edge">
<title>1&#45;&gt;4</title>
<path fill="none" stroke="black" d="M360.51,-211.3C338.49,-204.42 298.27,-194.44 264,-200 249.15,-202.41 233.18,-207.56 220.34,-212.38"/>
<polygon fill="black" stroke="black" points="218.84,-209.2 210.8,-216.11 221.39,-215.72 218.84,-209.2"/>
<text text-anchor="middle" x="286" y="-203.8" font-family="Helvetica,Arial,sans-serif" font-size="14.00">1</text>
</g>
<!-- 4&#45;&gt;5 -->
<g id="edge6" class="edge">
<title>4&#45;&gt;5</title>
<path fill="none" stroke="black" d="M199.38,-240.18C204.26,-255.78 213.68,-278.24 230,-291 236.81,-296.33 245.46,-299.53 253.86,-301.44"/>
<polygon fill="black" stroke="black" points="253.4,-304.91 263.85,-303.17 254.6,-298.01 253.4,-304.91"/>
<text text-anchor="middle" x="238" y="-301.8" font-family="Helvetica,Arial,sans-serif" font-size="14.00">14</text>
</g>
<!-- 4&#45;&gt;2 -->
<g id="edge9" class="edge">
<title>4&#45;&gt;2</title>
<path fill="none" stroke="black" d="M178.79,-212.79C168.6,-206.75 154.52,-200.99 142,-205 137.1,-206.57 132.31,-209.1 127.91,-211.97"/>
<polygon fill="black" stroke="black" points="125.53,-209.37 119.55,-218.12 129.68,-215.01 125.53,-209.37"/>
<text text-anchor="middle" x="150" y="-208.8" font-family="Helvetica,Arial,sans-serif" font-size="14.00">0</text>
</g>
<!-- 4&#45;&gt;3 -->
<g id="edge8" class="edge">
<title>4&#45;&gt;3</title>
<path fill="none" stroke="black" d="M208.58,-212.21C214.79,-207.79 222.43,-203.01 230,-200 270.27,-184 282.84,-186.79 326,-183 361.89,-179.85 417.53,-187.29 430,-192 434.73,-193.79 439.4,-196.37 443.72,-199.22"/>
<polygon fill="black" stroke="black" points="441.85,-202.18 451.99,-205.23 445.96,-196.52 441.85,-202.18"/>
<text text-anchor="middle" x="334" y="-186.8" font-family="Helvetica,Arial,sans-serif" font-size="14.00">0</text>
</g>
<!-- 4&#45;&gt;1 -->
<g id="edge7" class="edge">
<title>4&#45;&gt;1</title>
<path fill="none" stroke="black" d="M212.12,-222.44C243.69,-221.39 311.33,-219.17 349.43,-217.91"/>
<polygon fill="black" stroke="black" points="349.91,-221.4 359.79,-217.57 349.68,-214.4 349.91,-221.4"/>
<text text-anchor="middle" x="286" y="-223.8" font-family="Helvetica,Arial,sans-serif" font-size="14.00">0</text>
</g>
</g>
</svg>
