<?xml version="1.0" encoding="UTF-8" standalone="no"?>
<!DOCTYPE svg PUBLIC "-//W3C//DTD SVG 1.1//EN"
 "http://www.w3.org/Graphics/SVG/1.1/DTD/svg11.dtd">
<!-- Generated by graphviz version 2.43.0 (0)
 -->
<!-- Title: finite_state_machine Pages: 1 -->
<svg width="813pt" height="462pt"
 viewBox="0.00 0.00 813.00 462.00" xmlns="http://www.w3.org/2000/svg" xmlns:xlink="http://www.w3.org/1999/xlink">
<g id="graph0" class="graph" transform="scale(1 1) rotate(0) translate(4 458)">
<title>finite_state_machine</title>
<polygon fill="white" stroke="transparent" points="-4,4 -4,-458 809,-458 809,4 -4,4"/>
<!-- 0 -->
<g id="node1" class="node">
<title>0</title>
<ellipse fill="none" stroke="black" cx="22" cy="-94" rx="18" ry="18"/>
<ellipse fill="none" stroke="black" cx="22" cy="-94" rx="22" ry="22"/>
<text text-anchor="middle" x="22" y="-90.3" font-family="Helvetica,Arial,sans-serif" font-size="14.00">0</text>
</g>
<!-- 5 -->
<g id="node2" class="node">
<title>5</title>
<ellipse fill="none" stroke="black" cx="125" cy="-289" rx="18" ry="18"/>
<ellipse fill="none" stroke="black" cx="125" cy="-289" rx="22" ry="22"/>
<text text-anchor="middle" x="125" y="-285.3" font-family="Helvetica,Arial,sans-serif" font-size="14.00">5</text>
</g>
<!-- 0&#45;&gt;5 -->
<g id="edge27" class="edge">
<title>0&#45;&gt;5</title>
<path fill="none" stroke="black" d="M26.02,-116.06C30.54,-143.6 40.89,-191.4 62,-227 71.55,-243.11 86.25,-258.06 98.93,-269.24"/>
<polygon fill="black" stroke="black" points="97.02,-272.2 106.9,-276.01 101.55,-266.87 97.02,-272.2"/>
<text text-anchor="middle" x="73.5" y="-258.8" font-family="Helvetica,Arial,sans-serif" font-size="14.00">343</text>
</g>
<!-- 8 -->
<g id="node6" class="node">
<title>8</title>
<ellipse fill="none" stroke="black" cx="125" cy="-18" rx="18" ry="18"/>
<text text-anchor="middle" x="125" y="-14.3" font-family="Helvetica,Arial,sans-serif" font-size="14.00">8</text>
</g>
<!-- 0&#45;&gt;8 -->
<g id="edge26" class="edge">
<title>0&#45;&gt;8</title>
<path fill="none" stroke="black" d="M34.67,-75.82C41.67,-66.01 51.28,-54.26 62,-46 72.71,-37.75 86.24,-31.28 97.92,-26.65"/>
<polygon fill="black" stroke="black" points="99.45,-29.82 107.6,-23.05 97.01,-23.25 99.45,-29.82"/>
<text text-anchor="middle" x="73.5" y="-49.8" font-family="Helvetica,Arial,sans-serif" font-size="14.00">0</text>
</g>
<!-- 7 -->
<g id="node10" class="node">
<title>7</title>
<ellipse fill="none" stroke="black" cx="327" cy="-114" rx="18" ry="18"/>
<text text-anchor="middle" x="327" y="-110.3" font-family="Helvetica,Arial,sans-serif" font-size="14.00">7</text>
</g>
<!-- 0&#45;&gt;7 -->
<g id="edge28" class="edge">
<title>0&#45;&gt;7</title>
<path fill="none" stroke="black" d="M44.31,-95.41C98.07,-98.96 239.21,-108.27 298.82,-112.21"/>
<polygon fill="black" stroke="black" points="298.75,-115.71 308.96,-112.88 299.21,-108.72 298.75,-115.71"/>
<text text-anchor="middle" x="180.5" y="-108.8" font-family="Helvetica,Arial,sans-serif" font-size="14.00">1435</text>
</g>
<!-- 5&#45;&gt;0 -->
<g id="edge3" class="edge">
<title>5&#45;&gt;0</title>
<path fill="none" stroke="black" d="M113.99,-269.67C96.09,-235.12 58.56,-162.65 37.72,-122.43"/>
<polygon fill="black" stroke="black" points="40.76,-120.68 33.05,-113.41 34.54,-123.9 40.76,-120.68"/>
<text text-anchor="middle" x="73.5" y="-211.8" font-family="Helvetica,Arial,sans-serif" font-size="14.00">0</text>
</g>
<!-- 2 -->
<g id="node3" class="node">
<title>2</title>
<ellipse fill="none" stroke="black" cx="787" cy="-388" rx="18" ry="18"/>
<text text-anchor="middle" x="787" y="-384.3" font-family="Helvetica,Arial,sans-serif" font-size="14.00">2</text>
</g>
<!-- 5&#45;&gt;2 -->
<g id="edge5" class="edge">
<title>5&#45;&gt;2</title>
<path fill="none" stroke="black" d="M130.49,-310.49C140.54,-351.97 169.01,-439 231,-439 231,-439 231,-439 708,-439 731.21,-439 752.9,-422.99 767.48,-408.91"/>
<polygon fill="black" stroke="black" points="770.33,-411 774.82,-401.4 765.33,-406.11 770.33,-411"/>
<text text-anchor="middle" x="469.5" y="-442.8" font-family="Helvetica,Arial,sans-serif" font-size="14.00">0</text>
</g>
<!-- 4 -->
<g id="node4" class="node">
<title>4</title>
<ellipse fill="none" stroke="black" cx="707" cy="-310" rx="18" ry="18"/>
<text text-anchor="middle" x="707" y="-306.3" font-family="Helvetica,Arial,sans-serif" font-size="14.00">4</text>
</g>
<!-- 5&#45;&gt;4 -->
<g id="edge6" class="edge">
<title>5&#45;&gt;4</title>
<path fill="none" stroke="black" d="M139.74,-305.7C158.18,-326.12 193.05,-358 231,-358 231,-358 231,-358 613,-358 640.17,-358 667.33,-341.62 685.22,-328"/>
<polygon fill="black" stroke="black" points="687.58,-330.59 693.22,-321.62 683.22,-325.12 687.58,-330.59"/>
<text text-anchor="middle" x="422" y="-361.8" font-family="Helvetica,Arial,sans-serif" font-size="14.00">0</text>
</g>
<!-- 1 -->
<g id="node5" class="node">
<title>1</title>
<ellipse fill="none" stroke="black" cx="232" cy="-213" rx="18" ry="18"/>
<text text-anchor="middle" x="232" y="-209.3" font-family="Helvetica,Arial,sans-serif" font-size="14.00">1</text>
</g>
<!-- 5&#45;&gt;1 -->
<g id="edge4" class="edge">
<title>5&#45;&gt;1</title>
<path fill="none" stroke="black" d="M143.32,-276.76C157.53,-266.69 178.13,-252.01 196,-239 200.14,-235.98 204.54,-232.74 208.77,-229.61"/>
<polygon fill="black" stroke="black" points="211.14,-232.21 217.08,-223.43 206.96,-226.59 211.14,-232.21"/>
<text text-anchor="middle" x="180.5" y="-264.8" font-family="Helvetica,Arial,sans-serif" font-size="14.00">0</text>
</g>
<!-- 2&#45;&gt;5 -->
<g id="edge1" class="edge">
<title>2&#45;&gt;5</title>
<path fill="none" stroke="black" d="M769.4,-392.4C753.7,-396.17 729.42,-401 708,-401 231,-401 231,-401 231,-401 185.76,-401 154.35,-351.76 138.32,-318.58"/>
<polygon fill="black" stroke="black" points="141.4,-316.89 134.02,-309.28 135.04,-319.83 141.4,-316.89"/>
<text text-anchor="middle" x="469.5" y="-404.8" font-family="Helvetica,Arial,sans-serif" font-size="14.00">0</text>
</g>
<!-- 2&#45;&gt;4 -->
<g id="edge2" class="edge">
<title>2&#45;&gt;4</title>
<path fill="none" stroke="black" d="M779.36,-371.69C773.5,-358.96 763.86,-341.55 751,-330 746.01,-325.52 739.85,-321.87 733.77,-318.97"/>
<polygon fill="black" stroke="black" points="735.02,-315.7 724.45,-315.03 732.29,-322.15 735.02,-315.7"/>
<text text-anchor="middle" x="747" y="-333.8" font-family="Helvetica,Arial,sans-serif" font-size="14.00">0</text>
</g>
<!-- 4&#45;&gt;5 -->
<g id="edge12" class="edge">
<title>4&#45;&gt;5</title>
<path fill="none" stroke="black" d="M688.86,-309.12C670.21,-308.23 639.49,-307 613,-307 231,-307 231,-307 231,-307 205.53,-307 177.07,-301.79 156.21,-296.98"/>
<polygon fill="black" stroke="black" points="156.89,-293.54 146.35,-294.6 155.25,-300.34 156.89,-293.54"/>
<text text-anchor="middle" x="422" y="-310.8" font-family="Helvetica,Arial,sans-serif" font-size="14.00">556</text>
</g>
<!-- 4&#45;&gt;2 -->
<g id="edge10" class="edge">
<title>4&#45;&gt;2</title>
<path fill="none" stroke="black" d="M720.53,-322.53C732.89,-334.89 751.95,-353.95 766.32,-368.32"/>
<polygon fill="black" stroke="black" points="764.21,-371.16 773.76,-375.76 769.16,-366.21 764.21,-371.16"/>
<text text-anchor="middle" x="747" y="-354.8" font-family="Helvetica,Arial,sans-serif" font-size="14.00">0</text>
</g>
<!-- 9 -->
<g id="node9" class="node">
<title>9</title>
<ellipse fill="none" stroke="black" cx="612" cy="-228" rx="18" ry="18"/>
<text text-anchor="middle" x="612" y="-224.3" font-family="Helvetica,Arial,sans-serif" font-size="14.00">9</text>
</g>
<!-- 4&#45;&gt;9 -->
<g id="edge11" class="edge">
<title>4&#45;&gt;9</title>
<path fill="none" stroke="black" d="M702.34,-292.54C697.89,-275.84 688.67,-251.28 671,-238 662.24,-231.42 650.64,-228.59 640.12,-227.54"/>
<polygon fill="black" stroke="black" points="640.27,-224.04 630.1,-226.99 639.89,-231.03 640.27,-224.04"/>
<text text-anchor="middle" x="659.5" y="-241.8" font-family="Helvetica,Arial,sans-serif" font-size="14.00">0</text>
</g>
<!-- 1&#45;&gt;5 -->
<g id="edge18" class="edge">
<title>1&#45;&gt;5</title>
<path fill="none" stroke="black" d="M214.14,-210.75C199.89,-209.73 179.54,-210.45 165,-220 151.36,-228.96 141.98,-244.43 135.85,-258.46"/>
<polygon fill="black" stroke="black" points="132.56,-257.25 132.11,-267.84 139.07,-259.84 132.56,-257.25"/>
<text text-anchor="middle" x="180.5" y="-223.8" font-family="Helvetica,Arial,sans-serif" font-size="14.00">879</text>
</g>
<!-- 6 -->
<g id="node8" class="node">
<title>6</title>
<ellipse fill="none" stroke="black" cx="422" cy="-171" rx="18" ry="18"/>
<text text-anchor="middle" x="422" y="-167.3" font-family="Helvetica,Arial,sans-serif" font-size="14.00">6</text>
</g>
<!-- 1&#45;&gt;6 -->
<g id="edge16" class="edge">
<title>1&#45;&gt;6</title>
<path fill="none" stroke="black" d="M250.08,-213.69C261.67,-213.92 277.31,-213.75 291,-212 334.09,-206.48 345.29,-204.15 386,-189 389.61,-187.66 393.32,-186.04 396.92,-184.32"/>
<polygon fill="black" stroke="black" points="398.69,-187.34 406.02,-179.7 395.52,-181.1 398.69,-187.34"/>
<text text-anchor="middle" x="327" y="-212.8" font-family="Helvetica,Arial,sans-serif" font-size="14.00">0</text>
</g>
<!-- 1&#45;&gt;9 -->
<g id="edge19" class="edge">
<title>1&#45;&gt;9</title>
<path fill="none" stroke="black" d="M248.73,-220.01C254.65,-222.34 261.52,-224.67 268,-226 285.87,-229.66 290.77,-227.29 309,-228 417.41,-232.2 444.52,-233.44 553,-235 563.22,-235.15 565.83,-236.01 576,-235 578.74,-234.73 581.58,-234.34 584.41,-233.89"/>
<polygon fill="black" stroke="black" points="585.18,-237.3 594.37,-232.02 583.89,-230.42 585.18,-237.3"/>
<text text-anchor="middle" x="422" y="-235.8" font-family="Helvetica,Arial,sans-serif" font-size="14.00">123</text>
</g>
<!-- 1&#45;&gt;7 -->
<g id="edge17" class="edge">
<title>1&#45;&gt;7</title>
<path fill="none" stroke="black" d="M244.09,-199.47C250.85,-191.37 259.74,-180.94 268,-172 268.47,-171.49 289.69,-150.28 306.33,-133.65"/>
<polygon fill="black" stroke="black" points="308.96,-135.97 313.56,-126.43 304.01,-131.02 308.96,-135.97"/>
<text text-anchor="middle" x="279.5" y="-175.8" font-family="Helvetica,Arial,sans-serif" font-size="14.00">0</text>
</g>
<!-- 8&#45;&gt;0 -->
<g id="edge7" class="edge">
<title>8&#45;&gt;0</title>
<path fill="none" stroke="black" d="M108.78,-10.06C95.43,-4.3 76.02,1.04 62,-8 43.54,-19.9 33.73,-42.88 28.56,-62.1"/>
<polygon fill="black" stroke="black" points="25.11,-61.47 26.2,-72.01 31.92,-63.09 25.11,-61.47"/>
<text text-anchor="middle" x="73.5" y="-11.8" font-family="Helvetica,Arial,sans-serif" font-size="14.00">0</text>
</g>
<!-- 3 -->
<g id="node7" class="node">
<title>3</title>
<ellipse fill="none" stroke="black" cx="517" cy="-199" rx="18" ry="18"/>
<text text-anchor="middle" x="517" y="-195.3" font-family="Helvetica,Arial,sans-serif" font-size="14.00">3</text>
</g>
<!-- 3&#45;&gt;6 -->
<g id="edge8" class="edge">
<title>3&#45;&gt;6</title>
<path fill="none" stroke="black" d="M505.74,-184.71C499.52,-177.31 490.89,-169.01 481,-165 471.11,-160.99 459.54,-161.3 449.34,-163.05"/>
<polygon fill="black" stroke="black" points="448.34,-159.69 439.34,-165.27 449.86,-166.52 448.34,-159.69"/>
<text text-anchor="middle" x="469.5" y="-168.8" font-family="Helvetica,Arial,sans-serif" font-size="14.00">0</text>
</g>
<!-- 3&#45;&gt;9 -->
<g id="edge9" class="edge">
<title>3&#45;&gt;9</title>
<path fill="none" stroke="black" d="M534.63,-204.18C548.51,-208.51 568.56,-214.77 584.63,-219.78"/>
<polygon fill="black" stroke="black" points="583.93,-223.22 594.52,-222.86 586.01,-216.54 583.93,-223.22"/>
<text text-anchor="middle" x="564.5" y="-219.8" font-family="Helvetica,Arial,sans-serif" font-size="14.00">433</text>
</g>
<!-- 6&#45;&gt;1 -->
<g id="edge22" class="edge">
<title>6&#45;&gt;1</title>
<path fill="none" stroke="black" d="M403.67,-171.42C381.45,-172.28 341.85,-174.91 309,-183 291.43,-187.32 272.5,-194.79 257.93,-201.19"/>
<polygon fill="black" stroke="black" points="256.28,-198.09 248.6,-205.4 259.16,-204.47 256.28,-198.09"/>
<text text-anchor="middle" x="327" y="-186.8" font-family="Helvetica,Arial,sans-serif" font-size="14.00">191</text>
</g>
<!-- 6&#45;&gt;3 -->
<g id="edge21" class="edge">
<title>6&#45;&gt;3</title>
<path fill="none" stroke="black" d="M439.63,-176.01C453.51,-180.19 473.56,-186.22 489.63,-191.06"/>
<polygon fill="black" stroke="black" points="488.93,-194.51 499.52,-194.04 490.95,-187.8 488.93,-194.51"/>
<text text-anchor="middle" x="469.5" y="-191.8" font-family="Helvetica,Arial,sans-serif" font-size="14.00">433</text>
</g>
<!-- 6&#45;&gt;7 -->
<g id="edge20" class="edge">
<title>6&#45;&gt;7</title>
<path fill="none" stroke="black" d="M416.67,-153.62C411.9,-138.59 402.61,-117.77 386,-108 376.45,-102.38 364.45,-102.66 353.86,-104.83"/>
<polygon fill="black" stroke="black" points="352.64,-101.53 343.87,-107.48 354.43,-108.3 352.64,-101.53"/>
<text text-anchor="middle" x="374.5" y="-111.8" font-family="Helvetica,Arial,sans-serif" font-size="14.00">0</text>
</g>
<!-- 9&#45;&gt;4 -->
<g id="edge15" class="edge">
<title>9&#45;&gt;4</title>
<path fill="none" stroke="black" d="M626.46,-239.41C638.27,-249.47 655.89,-264.58 671,-278 675.73,-282.2 680.78,-286.77 685.52,-291.1"/>
<polygon fill="black" stroke="black" points="683.38,-293.88 693.12,-298.06 688.11,-288.72 683.38,-293.88"/>
<text text-anchor="middle" x="659.5" y="-281.8" font-family="Helvetica,Arial,sans-serif" font-size="14.00">556</text>
</g>
<!-- 9&#45;&gt;1 -->
<g id="edge14" class="edge">
<title>9&#45;&gt;1</title>
<path fill="none" stroke="black" d="M609.94,-209.95C606.2,-164.7 589.65,-50 518,-50 326,-50 326,-50 326,-50 264.64,-50 243.23,-138.22 236.2,-184.85"/>
<polygon fill="black" stroke="black" points="232.71,-184.55 234.8,-194.93 239.64,-185.51 232.71,-184.55"/>
<text text-anchor="middle" x="422" y="-53.8" font-family="Helvetica,Arial,sans-serif" font-size="14.00">0</text>
</g>
<!-- 9&#45;&gt;3 -->
<g id="edge13" class="edge">
<title>9&#45;&gt;3</title>
<path fill="none" stroke="black" d="M601.58,-213.24C595.42,-205.02 586.56,-195.55 576,-191 565.92,-186.66 554.02,-187.4 543.63,-189.72"/>
<polygon fill="black" stroke="black" points="542.57,-186.38 533.87,-192.42 544.44,-193.12 542.57,-186.38"/>
<text text-anchor="middle" x="564.5" y="-194.8" font-family="Helvetica,Arial,sans-serif" font-size="14.00">0</text>
</g>
<!-- 7&#45;&gt;0 -->
<g id="edge23" class="edge">
<title>7&#45;&gt;0</title>
<path fill="none" stroke="black" d="M312.94,-102.36C306.72,-97.44 298.91,-92.14 291,-89 210.08,-56.85 104.28,-74.37 53.2,-86.13"/>
<polygon fill="black" stroke="black" points="52.36,-82.73 43.45,-88.45 53.98,-89.54 52.36,-82.73"/>
<text text-anchor="middle" x="180.5" y="-73.8" font-family="Helvetica,Arial,sans-serif" font-size="14.00">0</text>
</g>
<!-- 7&#45;&gt;1 -->
<g id="edge24" class="edge">
<title>7&#45;&gt;1</title>
<path fill="none" stroke="black" d="M308.9,-114.81C296.24,-116.25 279.3,-120.08 268,-130 251.81,-144.21 242.91,-167.16 238.14,-185.32"/>
<polygon fill="black" stroke="black" points="234.73,-184.57 235.84,-195.1 241.54,-186.17 234.73,-184.57"/>
<text text-anchor="middle" x="279.5" y="-133.8" font-family="Helvetica,Arial,sans-serif" font-size="14.00">811</text>
</g>
<!-- 7&#45;&gt;6 -->
<g id="edge25" class="edge">
<title>7&#45;&gt;6</title>
<path fill="none" stroke="black" d="M343.55,-121.95C355.39,-128.15 371.99,-137.17 386,-146 390.2,-148.65 394.58,-151.61 398.76,-154.54"/>
<polygon fill="black" stroke="black" points="396.78,-157.42 406.95,-160.4 400.86,-151.73 396.78,-157.42"/>
<text text-anchor="middle" x="374.5" y="-149.8" font-family="Helvetica,Arial,sans-serif" font-size="14.00">624</text>
</g>
</g>
</svg>
